<?xml version="1.0" encoding="UTF-8" standalone="no"?>
<!-- Created with Inkscape (http://www.inkscape.org/) -->

<svg
   xmlns:dc="http://purl.org/dc/elements/1.1/"
   xmlns:cc="http://creativecommons.org/ns#"
   xmlns:rdf="http://www.w3.org/1999/02/22-rdf-syntax-ns#"
   xmlns:svg="http://www.w3.org/2000/svg"
   xmlns="http://www.w3.org/2000/svg"
   xmlns:xlink="http://www.w3.org/1999/xlink"
   xmlns:sodipodi="http://sodipodi.sourceforge.net/DTD/sodipodi-0.dtd"
   xmlns:inkscape="http://www.inkscape.org/namespaces/inkscape"
   width="210mm"
   height="297mm"
   id="svg2"
   version="1.1"
   inkscape:version="0.48.2 r9819"
   sodipodi:docname="icon.svg">
  <defs
     id="defs4">
    <linearGradient
       id="linearGradient4033">
      <stop
         style="stop-color:#ffffff;stop-opacity:1;"
         offset="0"
         id="stop4035" />
      <stop
         style="stop-color:#000000;stop-opacity:1;"
         offset="1"
         id="stop4037" />
    </linearGradient>
    <filter
       inkscape:collect="always"
       id="filter3771">
      <feGaussianBlur
         inkscape:collect="always"
         stdDeviation="1.243245"
         id="feGaussianBlur3773" />
    </filter>
    <filter
       inkscape:collect="always"
       id="filter3992">
      <feGaussianBlur
         inkscape:collect="always"
         stdDeviation="1.5560408"
         id="feGaussianBlur3994" />
    </filter>
    <filter
       inkscape:collect="always"
       id="filter4063">
      <feGaussianBlur
         inkscape:collect="always"
         stdDeviation="1.2262778"
         id="feGaussianBlur4065" />
    </filter>
    <filter
       inkscape:collect="always"
       id="filter3843">
      <feGaussianBlur
         inkscape:collect="always"
         stdDeviation="3.5374613"
         id="feGaussianBlur3845" />
    </filter>
    <filter
       inkscape:collect="always"
       id="filter4021">
      <feGaussianBlur
         inkscape:collect="always"
         stdDeviation="1.4821879"
         id="feGaussianBlur4023" />
    </filter>
    <radialGradient
       inkscape:collect="always"
       xlink:href="#linearGradient4033"
       id="radialGradient4039"
       cx="251.07143"
       cy="740.57654"
       fx="251.07143"
       fy="740.57654"
       r="103.35178"
       gradientUnits="userSpaceOnUse"
       spreadMethod="pad" />
    <filter
       inkscape:collect="always"
       id="filter4136">
      <feGaussianBlur
         inkscape:collect="always"
         stdDeviation="2.0070355"
         id="feGaussianBlur4138" />
    </filter>
  </defs>
  <sodipodi:namedview
     id="base"
     pagecolor="#ffffff"
     bordercolor="#666666"
     borderopacity="1.0"
     inkscape:pageopacity="0.0"
     inkscape:pageshadow="2"
     inkscape:zoom="1.4"
     inkscape:cx="206.04746"
     inkscape:cy="330.44761"
     inkscape:document-units="px"
     inkscape:current-layer="layer1"
     showgrid="false"
     inkscape:window-width="1400"
     inkscape:window-height="1027"
     inkscape:window-x="-1"
     inkscape:window-y="0"
     inkscape:window-maximized="1" />
  <metadata
     id="metadata7">
    <rdf:RDF>
      <cc:Work
         rdf:about="">
        <dc:format>image/svg+xml</dc:format>
        <dc:type
           rdf:resource="http://purl.org/dc/dcmitype/StillImage" />
        <dc:title></dc:title>
      </cc:Work>
    </rdf:RDF>
  </metadata>
  <g
     inkscape:label="Ebene 1"
     inkscape:groupmode="layer"
     id="layer1">
    <rect
       style="fill:url(#radialGradient4039);fill-opacity:1;stroke:none;filter:url(#filter4136)"
       id="rect3948"
       width="200.70355"
       height="200.70355"
       x="150.71965"
       y="640.22473"
       rx="41.899849"
       ry="41.899849"
       inkscape:export-filename="/tmp/path3915.png"
       inkscape:export-xdpi="6.8499999"
       inkscape:export-ydpi="6.8499999"
       transform="matrix(1.2170926,0,0,1.2170926,-70.24584,-120.74788)" />
    <rect
       style="fill:#808080;fill-opacity:1;fill-rule:evenodd;stroke:none"
       id="rect2985"
       width="122"
       height="122"
       x="10.606596"
       y="433.87219"
       inkscape:export-filename="/home/ingo/code/qsldcalc/repo/res/img/icon-128.png"
       inkscape:export-xdpi="94.426231"
       inkscape:export-ydpi="94.426231" />
    <path
       sodipodi:type="spiral"
       style="fill:none;stroke:#ffffff;stroke-width:10;stroke-linecap:round;stroke-linejoin:round;stroke-opacity:1;filter:url(#filter3771)"
       id="path3757"
       sodipodi:cx="413.1524"
       sodipodi:cy="456.37219"
       sodipodi:expansion="1"
       sodipodi:revolution="1.9049878"
       sodipodi:radius="40.320389"
       sodipodi:argument="-17.831457"
       sodipodi:t0="0"
       d="m 413.1524,456.37219 c 1.67137,2.70964 -2.82794,3.58981 -4.50359,2.77792 -4.5409,-2.20016 -3.85643,-8.52216 -1.05224,-11.7851 5.01604,-5.83663 14.13262,-4.49908 19.06661,0.67343 7.24083,7.59086 5.18046,19.8263 -2.3991,26.34812 -10.10236,8.69256 -25.55046,5.87952 -33.62963,-4.12478 -10.16681,-12.58938 -6.58797,-31.28936 5.85045,-40.91113 15.06458,-11.65326 37.03662,-7.3019 48.19264,7.57612 7.66377,10.22063 9.48643,23.93003 5.27254,35.92769"
       transform="matrix(0,-1,1,0,-379.5273,913.31417)"
       inkscape:export-filename="/home/ingo/code/qsldcalc/repo/res/img/icon-128.png"
       inkscape:export-xdpi="94.426231"
       inkscape:export-ydpi="94.426231" />
    <rect
       style="fill:#b3b3b3;fill-opacity:1;fill-rule:evenodd;stroke:none;stroke-width:16;stroke-linecap:round;stroke-linejoin:round;stroke-miterlimit:4;stroke-opacity:1;stroke-dasharray:none"
       id="rect2996"
       width="200.04286"
       height="200.04286"
       x="208.3149"
       y="402.72318"
       ry="31.31473"
       rx="31.31473"
       inkscape:export-filename="/tmp/text4053.png"
       inkscape:export-xdpi="13.281761"
       inkscape:export-ydpi="13.281761" />
    <path
       style="font-size:48px;font-style:normal;font-variant:normal;font-weight:normal;font-stretch:normal;line-height:125%;letter-spacing:0px;word-spacing:0px;fill:#ffffff;fill-opacity:1;stroke:none;filter:url(#filter3992);font-family:Linux Libertine O;-inkscape-font-specification:Linux Libertine O"
       d="m 277.375,462.625 c -10.32215,-0.58213 -19.03126,12.46628 -12.03125,21.0625 3.23964,5.16137 10.78191,5.27541 14.3125,9.78125 0.93797,2.50045 -1.37206,5.04554 -3.84375,3.28125 -3.52027,-0.60788 -4.56907,-4.85876 -6.8125,-6.1875 -2.16923,-0.46735 -4.59514,0.47953 -5.5625,2.53125 0.77536,-4.04673 -1.70078,-9.66029 -6.53125,-8.1875 -1.9265,1.37721 -3.4505,1.49285 -5.46875,0.21875 -12.65774,-3.36143 -26.05442,11.45357 -19.4375,23.40625 3.02011,6.22016 10.06013,10.20935 16.96875,9.40625 -0.36105,4.43893 -1.1332,9.10731 0.8125,13.3125 4.5271,-2.54681 11.37729,1.89983 14.46875,-3.65625 -1.07294,-7.64509 -0.87453,-15.7571 -0.625,-23.34375 7.63998,5.21841 19.32983,5.3132 26.59375,-0.625 7.22233,-6.44601 5.29071,-19.39795 -3.71875,-23.1875 -2.89285,-1.38812 -10.66379,-2.63647 -8.65625,-7 4.33771,-0.66788 4.91805,4.45191 7.8125,6.1875 4.72092,1.51866 7.08805,-4.12617 6.84375,-7.875 1.79748,-6.3016 -5.69871,-8.62897 -10.4375,-8.96875 -1.54384,-0.20989 -3.12838,-0.20272 -4.6875,-0.15625 z m 30.21875,5.53125 c -4.03278,0.99158 -10.71457,-1.89998 -12.84375,2.5625 -0.42388,11.90972 0.7646,23.82381 -0.28125,35.71875 0.14052,3.08089 0.30107,7.84063 4.68668,6.19288 8.48629,-0.28786 16.99893,-0.48131 25.46957,0.24462 1.06758,-1.23991 2.03594,-7.49948 1.5625,-3.21875 0.007,3.60611 -0.66083,9.90685 4.71875,7.90625 11.66458,-0.0806 26.58412,1.99643 34.4375,-8.8125 8.75,-11.9537 1.14425,-30.60027 -12.9375,-34.34375 -7.80102,-2.5778 -16.12397,-0.24983 -24.125,-1.4375 -3.92003,5.30952 -1.17279,12.92104 -1.65625,19.21875 -0.0849,4.66583 0.17839,9.64468 -0.21875,14.09375 0.65561,-3.93762 -3.07879,-7.52803 -6.875,-5.96875 -3.12251,-0.38268 -6.74777,1.46652 -9.53125,0.40625 -0.45152,-11.07113 0.60076,-22.14854 0.0312,-33.21875 -0.8125,0.21875 -1.625,0.4375 -2.4375,0.65625 z m 35.875,15.8125 c 7.45697,0.085 10.52769,8.4381 9.53125,14.84375 0.28866,4.21574 -2.7219,8.59671 -7.40625,7.625 -2.12803,0.27931 -5.44427,1.20361 -3.88403,-2.18725 0.45081,-6.61749 -0.95704,-14.16186 0.54028,-20.219 0.40785,0.0184 0.81167,-0.0694 1.21875,-0.0625 z m -96.1875,11.875 c 3.74622,1.64649 0.90822,7.60941 1.40625,10.71875 -4.14299,-0.3488 -2.41133,-5.9575 -2.8125,-8.8125 0.0892,-0.79327 0.32001,-2.10289 1.40625,-1.90625 z"
       id="text3980"
       inkscape:connector-curvature="0"
       transform="matrix(1.1450086,0,0,1.1450086,-37.75707,-330.34421)"
       inkscape:export-filename="/tmp/text4053.png"
       inkscape:export-xdpi="13.331405"
       inkscape:export-ydpi="13.331405" />
    <path
       style="font-size:54.96041107px;font-style:normal;font-variant:normal;font-weight:normal;font-stretch:normal;line-height:125%;letter-spacing:0px;word-spacing:0px;fill:#333333;fill-opacity:1;stroke:none;font-family:Linux Libertine O;-inkscape-font-specification:Linux Libertine O"
       d="m 279.86353,201.93823 c -8.62027,-0.037 -17.04541,8.84801 -13.15625,17.46875 2.99746,7.31005 11.87308,8.11102 17.34375,12.53125 2.58737,3.96296 0.56789,11.10173 -5,9.375 -4.08475,-0.72361 -7.77863,-3.39539 -9.25,-7.3125 -5.93753,-1.00613 -3.23461,6.46531 -5.28125,10 5.17957,5.11864 14.05066,5.26416 21,4.09375 9.76556,-1.41687 15.52701,-14.46079 8.59375,-21.96875 -4.06502,-5.34619 -11.87547,-5.11813 -16.125,-9.9375 -2.30675,-3.38973 0.45189,-9.07073 4.96875,-6.8125 3.86357,0.76857 5.41401,5.61617 7.87089,7.06571 4.80592,0.29163 2.30994,-6.57271 4.25411,-9.78446 -3.2128,-4.39394 -10.17195,-4.76908 -15.21875,-4.71875 z m 22.5625,6.9375 c -1.50171,4.37548 0.62194,10.38778 -0.0312,15.46875 0.27631,9.46066 -0.30195,19.50763 -0.34375,28.625 3.63775,2.53449 9.93941,-0.0747 14.53125,0.875 5.19457,0.15059 10.42457,-0.33732 15.59375,0.3125 1.73799,-2.56447 1.32047,-6.47523 0.25,-9.25 -5.75932,0.22303 -12.30377,1.255 -17.65625,0.59375 -0.38194,-11.914 -0.34299,-24.07479 0.3125,-35.84375 -1.79558,-3.12997 -7.53565,-0.25854 -11.09375,-1.375 l -0.90625,-0.0625 -0.65625,0.65625 z m 36.09375,6 c -0.20391,10.85799 0.54533,22.54785 0.125,33.71875 0.76006,3.55503 -2.34772,9.48359 1.03042,11.17797 12.47771,-0.88729 27.77582,2.8383 37.37583,-7.39672 9.58581,-10.45691 5.12532,-28.54024 -7.15625,-34.78125 -9.16792,-5.8815 -20.48913,-2.48393 -30.71875,-3.6875 l -0.56085,0.82792 -0.0954,0.14083 z m 15.78125,6.5 c 7.39602,-0.74622 13.86431,5.07806 14.3125,12.4375 0.91653,6.55384 1.05721,17.2213 -7.625,18.15625 -3.13014,0.11513 -7.61778,1.07674 -10.09375,-0.375 0.16697,-9.9163 -0.32008,-20.19571 0.21875,-29.90625 0.99454,-0.25683 2.10992,-0.30783 3.1875,-0.3125 z m -96.625,5.875 c -2.37848,0.15631 -3.40488,3.02897 -5.75,1.03125 -10.86709,-4.10848 -24.2043,4.80094 -23.3125,16.65625 0.4548,10.22186 11.83602,17.61545 21.1875,14.6875 0.58361,5.01429 -1.3436,10.26249 0,15.0625 3.71654,-1.03929 8.8488,1.00479 11.75,-0.9375 0.19912,-9.56276 -0.51378,-20.1722 -0.1875,-30.125 -1.16414,-5.00833 2.35395,-12.02455 -1.75,-15.9375 -0.57104,-0.35355 -1.26671,-0.55507 -1.9375,-0.4375 z m -12.3125,7.53125 c 5.59407,0.27934 4.74402,7.04492 4.4375,11 0.0222,2.80629 1.12835,7.19578 -3.03125,6.375 -6.835,0.0553 -5.69712,-9.32964 -5.28125,-13.8125 0.18739,-2.22444 1.55717,-3.71695 3.875,-3.5625 z"
       id="text3976"
       inkscape:connector-curvature="0"
       inkscape:export-filename="/tmp/text4053.png"
       inkscape:export-xdpi="13.331405"
       inkscape:export-ydpi="13.331405" />
    <text
       xml:space="preserve"
       style="font-size:48px;font-style:normal;font-variant:normal;font-weight:bold;font-stretch:normal;line-height:125%;letter-spacing:0px;word-spacing:0px;fill:#000000;fill-opacity:1;stroke:none;font-family:Linux Libertine O;-inkscape-font-specification:Linux Libertine O Bold"
       x="463.0657"
       y="448.42838"
       id="text4001"
       sodipodi:linespacing="125%"><tspan
         sodipodi:role="line"
         id="tspan4003"
         x="463.0657"
         y="448.42838"
         style="font-size:72px">qSLD</tspan></text>
    <g
       style="font-size:48px;font-style:normal;font-variant:normal;font-weight:bold;font-stretch:normal;line-height:125%;letter-spacing:0px;word-spacing:0px;fill:#333333;fill-opacity:1;stroke:none;font-family:Linux Libertine O;-inkscape-font-specification:Linux Libertine O Bold"
       id="text4030" />
    <path
       style="font-size:48px;font-style:normal;font-variant:normal;font-weight:bold;font-stretch:normal;line-height:125%;letter-spacing:0px;word-spacing:0px;fill:#ffffff;fill-opacity:1;stroke:none;filter:url(#filter4063);font-family:Linux Libertine O;-inkscape-font-specification:Linux Libertine O Bold"
       d="m 281.04446,273.10484 c -9.3331,0.1557 -16.7481,10.20837 -13.125,19.0625 2.84452,7.78056 11.48128,10.0526 17.8125,13.9375 4.41531,3.76392 2.71623,13.38312 -4.15625,12.09375 -5.32496,-0.3436 -7.88532,-6.08612 -8.6875,-10.71875 -7.6116,-1.64727 -6.86376,3.51179 -5.5859,9.11212 1.26007,2.73396 -1.33589,9.63765 3.55465,7.76288 7.20155,-0.3251 15.14437,2.71877 21.875,-1.46875 10.34408,-5.84991 8.99294,-22.93696 -1.6875,-27.71875 -4.98032,-2.70876 -14.10378,-4.42477 -12.96875,-11.71875 0.81796,-5.96298 9.87118,-3.76077 10.6875,1.28125 1.01363,4.98216 3.29772,6.92682 8.59375,4.96875 -0.83037,-4.819 -1.61659,-9.53625 -1.9375,-14.40625 -4.85133,-0.83761 -9.29418,-2.84443 -14.375,-2.1875 z m 21.65625,6.1875 c -2.98456,3.02385 0.35382,7.29225 4.15625,6.15625 2.01991,2.05648 -0.32133,7.17784 0.5625,10.03125 -0.12099,9.15077 0.23104,18.69291 -0.15625,27.625 -3.63322,-1.12799 -6.74094,1.97528 -5.46875,5.65625 8.62554,1.81923 18.00156,0.0669 26.90625,0.6875 4.39009,-0.65674 12.30008,2.47904 10.8125,-4.40625 0.34715,-3.8705 1.18667,-7.76613 1.9375,-11.625 -5.59482,-2.71821 -7.37021,-0.2017 -8.8125,4.8125 -1.82222,4.6912 -8.5253,4.51698 -12.28125,3.59375 -0.0523,-12.00576 -0.51245,-24.43679 0.1875,-36.28125 2.82443,0.25646 6.21411,-0.95693 5.125,-4.5625 -2.09034,-4.44671 -9.48515,-1.04926 -13.87493,-2.01639 -2.93856,0.33068 -6.43027,-0.78017 -9.09382,0.32889 z m 40.34375,10.375 c -2.38966,3.6496 1.09057,6.50103 4.625,5.84375 1.1234,5.75973 -0.0573,12.95162 0.375,19.125 -0.32438,5.95207 0.56213,12.46759 -0.28125,18.1875 -2.81523,-0.19922 -6.32051,0.83045 -5.28125,4.46875 2.67735,4.69654 11.14163,0.95999 16.125,2.15625 11.77045,0.83882 26.94091,-0.46335 32.75,-12.46875 10.12804,-19.05395 -8.99066,-41.64599 -29.4375,-38.0625 -6.10995,0.54005 -13.39683,-1.05769 -18.875,0.75 z m 20.3125,6.125 c 11.68714,-0.68936 17.98292,11.943 17.03125,22.125 0.66211,7.4524 -4.90363,14.70294 -12.6875,14.53125 -2.82578,-0.19035 -8.8165,1.67183 -6.875,-3.5625 0.16334,-10.89992 -0.31519,-22.21186 0.21875,-32.875 0.74678,-0.15856 1.53791,-0.17747 2.3125,-0.21875 z m -105.28125,2.46875 c -3.10463,-0.32034 -4.64459,4.31866 -7.34375,1.3125 -11.01051,-4.67487 -23.77017,5.30549 -23.3125,16.9375 -0.99881,10.02619 7.53743,19.97018 18,18.59375 5.67585,-2.30672 2.88363,4.74537 3.5,8.28125 -0.20593,2.35593 -5.14974,0.75423 -4.6875,4.09375 -0.76989,6.39972 7.70034,2.87506 11.59371,3.66518 3.84004,-0.0398 11.51515,1.78469 9.50004,-4.60268 -0.76341,-2.75293 -6.2269,-0.9104 -4.5,-4.96875 -0.22911,-13.93665 0.40592,-28.09155 -0.21875,-41.90625 -0.47416,-0.87208 -1.52683,-1.46264 -2.53125,-1.40625 z m -13.21875,7.25 c 5.79356,0.0206 3.91471,7.55774 4.0625,11.40625 -1.06044,3.09944 2.55737,10.99946 -2.625,10.53125 -7.51542,-1.58724 -7.66334,-11.6429 -5.90625,-17.53125 0.76182,-1.97717 2.08716,-4.29603 4.46875,-4.40625 z"
       id="text4057"
       inkscape:connector-curvature="0"
       inkscape:export-filename="/tmp/text4053.png"
       inkscape:export-xdpi="13.331405"
       inkscape:export-ydpi="13.331405" />
    <text
       xml:space="preserve"
       style="font-size:48px;font-style:normal;font-variant:normal;font-weight:bold;font-stretch:normal;line-height:125%;letter-spacing:0px;word-spacing:0px;fill:#333333;fill-opacity:1;stroke:none;font-family:Linux Libertine O;-inkscape-font-specification:Linux Libertine O Bold"
       x="226.78975"
       y="332.43567"
       id="text4053"
       sodipodi:linespacing="125%"
       inkscape:export-filename="/tmp/text4053.png"
       inkscape:export-xdpi="13.331405"
       inkscape:export-ydpi="13.331405"><tspan
         dy="0 -10 5 10"
         sodipodi:role="line"
         id="tspan4055"
         x="226.78975"
         y="332.43567"
         style="font-size:72px;letter-spacing:2px;fill:#333333">qSLD</tspan></text>
    <g
       id="g3847"
       transform="matrix(1.0704658,0,0,1.0625337,-19.59542,-31.640346)"
       inkscape:export-filename="/tmp/text4053.png"
       inkscape:export-xdpi="13.281761"
       inkscape:export-ydpi="13.281761">
      <path
         inkscape:connector-curvature="0"
         id="path3041"
         d="m 274.875,454.3125 c -12.21653,1.10781 -22.14975,13.01196 -21.46875,25.21875 -3.93158,1.16042 -7.94821,1.42725 -11.78125,0.0937 -19.10084,-1.06427 -33.58564,21.02699 -26.1875,38.3125 2.81659,7.23555 8.75836,13.12545 15.84375,16.0625 -3.52659,8.7692 5.13342,20.22433 14.625,17 8.13475,0.54529 20.01483,2.21291 24.03125,-7 2.45591,-5.37579 0.14268,-11.74355 -3.5625,-15.71875 -1.25739,-3.89044 -0.099,-4.74669 4.06001,-3.58572 6.40755,0.44903 13.06719,0.84999 19.22124,-1.25803 4.00979,7.52733 13.5268,6.41682 20.65625,6.0625 6.1899,-0.018 12.51248,-0.54164 18.625,0.28125 1.86401,8.50708 11.71169,11.22217 19.2811,9.77439 15.5621,0.55811 34.64335,0.56574 44.75015,-13.36814 14.50703,-19.03932 2.30329,-50.92685 -21.53125,-54.78125 -12.05373,-2.57538 -24.93332,-1.9281 -36.875,0.34375 -1.56205,0.73439 -2.91701,2.66043 -3.78125,3.59375 1.71919,-8.05878 -5.27483,-17.56116 -14,-15.21875 -6.29984,0.18734 -13.14219,-0.28127 -19.125,-0.15625 -5.90154,-5.95741 -15.00321,-5.43593 -22.78125,-5.65625 z m 54.25,25.78125 c -1.15313,4.95034 1.70385,10.86044 4.9375,13.40625 -3.03017,-0.23202 -6.10525,0.69956 -8.5625,2.46875 0.34141,-4.18716 -1.02235,-9.28587 0.8125,-13 1.11557,-0.54232 2.67549,-2.89116 2.8125,-2.875 z m 37,21.25 c 1.25473,2.89579 1.20829,8.02006 0.0625,9.96875 -0.007,-3.06722 -0.37187,-7.71372 -0.0625,-9.96875 z"
         style="font-size:48px;font-style:normal;font-variant:normal;font-weight:bold;font-stretch:normal;line-height:125%;letter-spacing:0px;word-spacing:0px;fill:#ffffff;fill-opacity:1;stroke:none;filter:url(#filter3843);font-family:Linux Libertine O;-inkscape-font-specification:Linux Libertine O Bold" />
      <path
         transform="translate(19.124188,-165.18893)"
         d="m 259.21875,627.40625 c -1.97924,6e-5 -3.9141,0.34978 -5.78125,0.96875 -0.01,0.003 -0.0214,-0.003 -0.0312,0 -1.86073,0.60624 -3.61371,1.51272 -5.1875,2.6875 -0.0114,0.008 -0.0199,0.0227 -0.0312,0.0312 -1.78579,1.31752 -3.20753,3.10497 -4.21875,5.15625 -1.03991,2.14102 -1.53125,4.53924 -1.53125,7.03125 0,3.97577 1.66028,7.75841 4.5625,10.75 2.89685,2.98605 6.95298,5.32531 12.0625,7.3125 0.009,0.004 0.0218,-0.004 0.0312,0 1.56449,0.62411 2.51968,1.46037 3.21875,2.53125 0.75941,1.13913 1.12499,2.3104 1.125,3.875 -10e-6,2.17842 -0.49494,3.20841 -1.0625,3.78125 -0.56756,0.57284 -1.5626,1.0625 -3.71875,1.0625 -1.52159,0 -2.70163,-0.46915 -4.15625,-1.90625 -1.40034,-1.40033 -2.43558,-3.29115 -3.03125,-6.03125 A 3.4023695,3.4023695 0 0 0 247.875,662 L 245,662.25 a 3.4023695,3.4023695 0 0 0 -3.09375,3.8125 c 0.84058,6.56122 1.28801,10.81943 1.34375,12.25 a 3.4023695,3.4023695 0 0 0 3.40625,3.28125 c 0.62077,0 1.32979,-0.0712 2.15625,-0.21875 0.55226,-0.0986 0.9568,-0.125 1.125,-0.125 -0.19203,0 0.25441,0.0324 0.875,0.1875 a 3.4023695,3.4023695 0 0 0 0.0937,0 c 0.92886,0.20319 2.09806,0.39304 3.5625,0.5625 0.0251,0.003 0.0372,-0.003 0.0625,0 1.6443,0.20896 3.51424,0.3125 5.65625,0.3125 4.93701,0 9.37768,-1.45109 12.6875,-4.40625 3.46351,-3.09572 5.09372,-7.72314 5.09375,-12.96875 -4e-5,-2.0367 -0.34332,-3.98787 -1.03125,-5.8125 -0.63929,-1.72321 -1.48846,-3.2841 -2.625,-4.625 -0.0149,-0.0176 -0.0163,-0.045 -0.0312,-0.0625 l -0.0312,0.0312 c -1.03236,-1.25744 -2.2614,-2.37505 -3.6875,-3.375 -0.006,-0.004 0.006,-0.0271 0,-0.0312 -0.008,-0.005 -0.0236,0.005 -0.0312,0 -1.33829,-0.95058 -2.66978,-1.77997 -4.03125,-2.40625 -0.008,-0.004 -0.0229,0.004 -0.0312,0 -1.21978,-0.56971 -2.52115,-1.0809 -3.9375,-1.59375 -0.63945,-0.23089 -1.33998,-0.56053 -2.0625,-0.96875 -0.67947,-0.4181 -1.45129,-1.01051 -2.3125,-1.71875 -0.70086,-0.5957 -1.2397,-1.17685 -1.625,-1.84375 l 0.0312,0 c -0.35726,-0.63204 -0.46875,-1.10886 -0.46875,-1.5625 -10e-6,-1.65617 0.357,-2.58818 0.84375,-3.21875 0.35003,-0.45114 0.67652,-0.71872 2.21875,-0.71875 0.98979,3e-5 1.6808,0.19171 2.25,0.5 a 3.4023695,3.4023695 0 0 0 0.0312,0 c 0.66148,0.35102 1.13202,0.7762 1.59375,1.46875 a 3.4023695,3.4023695 0 0 0 0.0312,0.0312 c 0.62012,0.91086 1.08197,1.82682 1.4375,2.6875 a 3.4023695,3.4023695 0 0 0 0.0625,0.0625 c 0.39279,0.88387 0.76149,1.93118 1.09375,3.15625 a 3.4023695,3.4023695 0 0 0 3.6875,2.5 l 2.875,-0.34375 a 3.4023695,3.4023695 0 0 0 2.9375,-3.96875 c -0.78248,-4.34952 -1.23954,-7.90984 -1.4375,-10.59375 a 3.4023695,3.4023695 0 0 0 -2.90625,-3.125 c -0.69993,-0.10239 -1.51586,-0.30262 -2.375,-0.59375 -0.009,-0.003 -0.022,0.003 -0.0312,0 -1.19036,-0.41338 -2.44216,-0.74243 -3.78125,-1 -1.55669,-0.30517 -3.31157,-0.4062 -5.40625,-0.40625 z m 21.21875,5.8125 a 3.4023695,3.4023695 0 0 0 -1.84375,0.75 l -0.15625,0.125 a 3.4023695,3.4023695 0 0 0 -1.28125,2.65625 l 0,1.71875 c 0,0.77729 0.24903,1.94299 1.125,2.84375 0.87597,0.90076 2.08627,1.18758 2.90625,1.1875 l 1.03125,0 c 0.29155,10e-6 0.38503,0.0351 0.5625,0.0625 l 0,34.90625 -1.0625,0 c -0.81054,0 -1.83844,0.0986 -2.90625,0.90625 -1.06781,0.80763 -1.65625,2.34115 -1.65625,3.375 l 0,1.4375 a 3.4023695,3.4023695 0 0 0 1.75,2.96875 l 0.28125,0.15625 a 3.4023695,3.4023695 0 0 0 1.71875,0.4375 l 8.53125,-0.15625 0.0625,0 24.59375,0 A 3.4023695,3.4023695 0 0 0 317.5,683.3125 c 0.10507,-2.83782 0.68463,-6.84245 1.71875,-11.875 a 3.4023695,3.4023695 0 0 0 -2.65625,-4.03125 L 313.75,666.8125 a 3.4023695,3.4023695 0 0 0 -3.96875,2.46875 c -0.27281,1.01321 -0.6269,1.96213 -1.03125,2.875 -0.004,0.009 0.004,0.0225 0,0.0312 -0.37012,0.81005 -0.83843,1.60122 -1.4375,2.40625 a 3.4023695,3.4023695 0 0 0 -0.0312,0.0312 c -0.43553,0.60411 -0.94865,1.0631 -1.59375,1.40625 -0.58677,0.31211 -1.21668,0.46875 -2.09375,0.46875 l -5.21875,0 0,-33.9375 c 0.15144,-0.024 0.20526,-0.0625 0.46875,-0.0625 l 1.09375,0 c 0.94718,1.2e-4 2.29398,-0.53431 3.03125,-1.46875 0.73727,-0.93444 0.87497,-1.87415 0.875,-2.5625 l 0,-1.71875 a 3.4023695,3.4023695 0 0 0 -1.28125,-2.65625 l -0.15625,-0.125 a 3.4023695,3.4023695 0 0 0 -2.15625,-0.75 l -9.65625,0.125 c -0.006,0 -0.0254,0 -0.0312,0 -1.84039,-1.5e-4 -5.10174,-0.0318 -9.78125,-0.125 a 3.4023695,3.4023695 0 0 0 -0.34375,0 z m 40.9375,10.0625 a 3.4023695,3.4023695 0 0 0 -2.65625,1.28125 l -0.125,0.15625 a 3.4023695,3.4023695 0 0 0 -0.75,2.125 l 0,1.625 c 0,0.70392 0.23657,1.92446 1.15625,2.84375 0.65179,0.65202 1.53726,1.18786 2.8125,1.1875 l 1,0 c 0.29951,10e-6 0.3831,0.033 0.5625,0.0625 l 0,34.78125 c -0.18029,0.0296 -0.27296,0.0625 -0.5625,0.0625 l -1,0 c -0.82539,0 -2.16227,0.37512 -3,1.34375 -0.83773,0.96863 -0.96875,2.01861 -0.96875,2.71875 l 0,1.59375 a 3.4023695,3.4023695 0 0 0 1,2.40625 l 0.125,0.125 a 3.4023695,3.4023695 0 0 0 2.40625,1 l 22.59375,0 c 2.5112,0 4.96843,-0.21734 7.34375,-0.65625 2.44303,-0.45144 4.92951,-1.2279 7.40625,-2.375 2.59305,-1.21551 4.84219,-2.80699 6.75,-4.6875 2.02477,-1.99589 3.63604,-4.54127 4.8125,-7.5625 1.24284,-3.14865 1.81245,-6.63767 1.8125,-10.375 -6e-5,-4.97302 -1.32255,-9.69019 -3.9375,-13.90625 -2.58137,-4.23119 -6.20481,-7.62447 -10.6875,-10.0625 -4.48419,-2.45304 -9.47752,-3.68744 -14.78125,-3.6875 l -21.3125,0 z M 235,652.625 c -1.54249,6e-5 -3.00922,0.57056 -4.1875,1.375 -0.007,0.005 -0.0238,-0.005 -0.0312,0 l 0,0.0312 c -0.41457,0.2833 -0.77701,0.75302 -1.15625,1.09375 -2.34183,-1.33879 -4.8514,-2.28122 -7.53125,-2.28125 -5.48575,3e-5 -10.44726,2.04311 -14.03125,5.9375 a 3.4023695,3.4023695 0 0 0 0,0.0312 c -3.52935,3.8655 -5.3125,8.8754 -5.3125,14.40625 0,1.62046 0.17049,3.27248 0.53125,4.9375 a 3.4023695,3.4023695 0 0 0 0,0.0625 c 0.40521,1.70772 1.06993,3.37333 1.9375,5 0.9128,1.71154 2.07488,3.25788 3.4375,4.5625 a 3.4023695,3.4023695 0 0 0 0.0312,0 c 1.49575,1.40228 3.29046,2.47659 5.34375,3.28125 a 3.4023695,3.4023695 0 0 0 0.0625,0.0312 c 2.16669,0.8089 4.53288,1.21875 7.03125,1.21875 1.01338,0 2.07013,-0.15567 3.125,-0.3125 l 0,6.96875 c -0.0984,0.0373 -0.0464,0.0297 -0.65625,0.15625 a 3.4023695,3.4023695 0 0 0 -0.0312,0.0312 l -0.625,0.125 -0.0937,0.0312 c -0.6609,0.13754 -1.51931,0.47771 -2.21875,1.25 -0.72985,0.80587 -1.03129,1.9069 -1.03125,2.6875 l 0,1.65625 a 3.4023695,3.4023695 0 0 0 1,2.40625 l 0.125,0.125 a 3.4023695,3.4023695 0 0 0 2.46875,1 l 8.375,-0.125 c 0.0136,0 0.0488,0 0.0625,0 1.83787,4.4e-4 4.60553,0.0325 8.375,0.125 a 3.4023695,3.4023695 0 0 0 2.21875,-0.75 l 0.15625,-0.125 a 3.4023695,3.4023695 0 0 0 1.28125,-2.65625 l 0,-1.65625 c -1e-4,-0.81196 -0.34441,-1.92911 -1.03125,-2.6875 -0.6555,-0.72378 -1.42432,-1.02421 -2.03125,-1.1875 -0.004,-0.001 0.004,-0.0302 0,-0.0312 l -0.0937,-0.0312 -0.46875,-0.125 a 3.4023695,3.4023695 0 0 0 -0.0625,0 c -0.67175,-0.17416 -0.75886,-0.26738 -1,-0.375 l 0,-33.71875 c -3e-5,-1.55413 0.0625,-4.29905 0.15625,-8.1875 a 3.4023695,3.4023695 0 0 0 0,-0.0937 c -1e-4,-0.86833 -0.53038,-2.04015 -1.34375,-2.875 l 0.0937,-0.0937 c -0.0811,-0.0811 -0.21945,-0.14034 -0.3125,-0.21875 -0.0519,-0.0424 -0.0705,-0.11732 -0.125,-0.15625 l -0.0312,0.0625 C 236.78583,653.05071 236.00757,652.62518 235,652.625 z m 105.03125,0.34375 c 2.36095,3e-5 4.38668,0.40382 6.125,1.125 1.82186,0.75592 3.20953,1.67056 4.28125,2.8125 a 3.4023695,3.4023695 0 0 0 0,0.0312 c 1.1634,1.22068 2.18156,2.66965 3,4.40625 0.84162,1.78598 1.40504,3.59117 1.75,5.4375 a 3.4023695,3.4023695 0 0 0 0,0.0312 c 0.37338,1.86708 0.56246,3.86669 0.5625,5.9375 -4e-5,2.49024 -0.27002,4.53349 -0.78125,6.21875 a 3.4023695,3.4023695 0 0 0 0,0.0312 c -0.51307,1.75619 -1.18388,3.03028 -1.875,3.875 a 3.4023695,3.4023695 0 0 0 -0.0312,0.0312 c -0.76638,0.95794 -1.66516,1.71152 -2.78125,2.3125 l 0,0.0312 c -1.22187,0.63168 -2.4662,1.04526 -3.71875,1.28125 -1.31368,0.25114 -2.90302,0.375 -4.71875,0.375 -1.42318,0 -2.18654,-0.0619 -2.84375,-0.125 l 0,-33.71875 c 0.34339,-0.0555 0.36753,-0.0937 1.03125,-0.0937 z m -118.125,9.71875 c 0.75381,10e-6 1.44451,0.40938 2.34375,1.5625 l 0,17.3125 c -0.16575,0.0407 -0.62651,0.28125 -0.6875,0.28125 -0.4231,0 -0.86596,-0.0656 -1.3125,-0.1875 -0.32373,-0.10473 -0.83594,-0.34461 -1.4375,-0.8125 -0.50983,-0.39652 -0.99615,-0.92442 -1.46875,-1.625 -0.004,-0.007 -0.0268,-0.0242 -0.0312,-0.0312 -0.33878,-0.53545 -0.7634,-1.48882 -1.125,-2.875 -0.33316,-1.27705 -0.50001,-2.80667 -0.5,-4.59375 -1e-5,-3.2346 0.6184,-5.58214 1.59375,-7.21875 l -0.0312,0 c 0.97519,-1.60905 1.49334,-1.81248 2.65625,-1.8125 z"
         id="path3039"
         style="font-size:48px;font-style:normal;font-variant:normal;font-weight:bold;font-stretch:normal;line-height:125%;letter-spacing:0px;word-spacing:0px;fill:#000000;fill-opacity:1;stroke:none;font-family:Linux Libertine O;-inkscape-font-specification:Linux Libertine O Bold"
         inkscape:original="M 259.21875 630.8125 C 257.60155 630.81255 256.01561 631.07817 254.46875 631.59375 C 252.9453 632.08598 251.53124 632.82817 250.21875 633.8125 C 248.90624 634.77348 247.85156 636.08598 247.03125 637.75 C 246.23437 639.39066 245.84375 641.21879 245.84375 643.28125 C 245.84375 649.46878 250.65624 654.43752 260.3125 658.1875 C 262.44529 659.03127 264.05467 660.31252 265.15625 662 C 266.28123 663.68751 266.84373 665.59376 266.84375 667.75 C 266.84373 673.23438 264.11717 676 258.65625 676 C 256.21874 676 254.03905 675.01563 252.09375 673.09375 C 250.17187 671.17188 248.85937 668.60938 248.15625 665.375 L 245.28125 665.625 C 246.125 672.21094 246.58593 676.38281 246.65625 678.1875 C 247.05468 678.1875 247.5625 678.14844 248.21875 678.03125 C 248.87499 677.91406 249.44531 677.84375 249.9375 677.84375 C 250.31249 677.84375 250.87499 677.9375 251.625 678.125 C 252.37499 678.28906 253.47655 678.46094 254.90625 678.625 C 256.35936 678.8125 258.12498 678.90625 260.1875 678.90625 C 264.49998 678.90625 267.96872 677.71875 270.59375 675.375 C 273.24216 673.00782 274.56247 669.53126 274.5625 664.9375 C 274.56247 663.27345 274.28903 661.7422 273.75 660.3125 C 273.21091 658.85939 272.53122 657.64065 271.6875 656.65625 C 270.86716 655.64846 269.83591 654.71096 268.59375 653.84375 C 267.37498 652.97659 266.18748 652.26565 265.0625 651.75 C 263.96092 651.2344 262.73436 650.74221 261.375 650.25 C 260.53123 649.94534 259.62498 649.53909 258.6875 649 C 257.77342 648.43753 256.87499 647.74222 255.9375 646.96875 C 254.99999 646.17191 254.20311 645.27347 253.59375 644.21875 C 252.98436 643.14066 252.68749 642.04691 252.6875 640.96875 C 252.68749 638.76566 253.21874 636.99223 254.25 635.65625 C 255.30468 634.29692 256.92967 633.62504 259.15625 633.625 C 260.60936 633.62504 261.90623 633.92192 263.03125 634.53125 C 264.17967 635.14067 265.12498 636.00004 265.875 637.125 C 266.62498 638.2266 267.21091 639.32816 267.65625 640.40625 C 268.12497 641.46097 268.56247 642.67972 268.9375 644.0625 L 271.8125 643.71875 C 271.0156 639.2891 270.52341 635.64067 270.3125 632.78125 C 269.35154 632.64067 268.34372 632.38286 267.3125 632.03125 C 266.30466 631.67973 265.18748 631.39067 263.96875 631.15625 C 262.77342 630.92192 261.18748 630.81255 259.21875 630.8125 z M 280.71875 636.625 L 280.5625 636.75 L 280.5625 638.46875 C 280.5625 638.86723 280.76562 639.09379 281.1875 639.09375 L 282.21875 639.09375 C 283.64843 639.09379 284.67187 639.32036 285.28125 639.8125 C 285.89062 640.28129 286.18749 641.1016 286.1875 642.25 L 286.1875 678.03125 C 286.18749 679.13282 286.02343 679.88282 285.71875 680.28125 C 285.43749 680.67969 284.86718 680.875 284 680.875 L 281.71875 680.875 C 280.94531 680.875 280.5625 681.16406 280.5625 681.75 L 280.5625 683.1875 L 280.84375 683.34375 L 289.4375 683.1875 L 314.09375 683.1875 C 314.2109 680.02344 314.82028 675.88282 315.875 670.75 L 313.0625 670.15625 C 312.73434 671.37501 312.31247 672.50782 311.84375 673.5625 C 311.37497 674.59376 310.78122 675.6172 310.03125 676.625 C 309.30466 677.63282 308.38278 678.44532 307.28125 679.03125 C 306.17966 679.61719 304.9531 679.90625 303.59375 679.90625 L 297.40625 679.90625 C 296.63279 679.90625 296.04686 679.625 295.625 679.0625 C 295.20311 678.47657 294.96873 677.64844 294.96875 676.59375 L 294.96875 642.25 C 294.96873 641.19535 295.2578 640.39067 295.84375 639.875 C 296.42967 639.33598 297.43748 639.09379 298.84375 639.09375 L 299.9375 639.09375 C 300.2656 639.09379 300.43748 638.86723 300.4375 638.46875 L 300.4375 636.75 L 300.28125 636.625 L 290.59375 636.75 C 288.71874 636.75005 285.42968 636.7188 280.71875 636.625 z M 321.375 646.6875 L 321.25 646.84375 L 321.25 648.46875 C 321.25 648.63286 321.28906 648.78911 321.40625 648.90625 C 321.52344 649.02348 321.67187 649.09379 321.8125 649.09375 L 322.8125 649.09375 C 324.26562 649.09379 325.28906 649.32036 325.875 649.8125 C 326.48437 650.28129 326.78124 651.1016 326.78125 652.25 L 326.78125 687.65625 C 326.78124 688.80469 326.48437 689.60157 325.875 690.09375 C 325.28906 690.5625 324.26562 690.8125 322.8125 690.8125 L 321.8125 690.8125 C 321.4375 690.8125 321.25 691.02344 321.25 691.46875 L 321.25 693.0625 L 321.375 693.1875 L 343.96875 693.1875 C 346.28904 693.1875 348.53122 692.99219 350.6875 692.59375 C 352.84372 692.19531 355.05465 691.5 357.28125 690.46875 C 359.53121 689.41407 361.45308 688.05469 363.09375 686.4375 C 364.73433 684.82032 366.0937 682.71095 367.125 680.0625 C 368.17964 677.39064 368.68745 674.33596 368.6875 670.9375 C 368.68745 666.55471 367.54683 662.51566 365.25 658.8125 C 362.97652 655.08598 359.85152 652.14848 355.84375 649.96875 C 351.85934 647.78911 347.46872 646.68755 342.6875 646.6875 L 321.375 646.6875 z M 340.03125 649.5625 C 342.77341 649.56254 345.2656 650.02348 347.46875 650.9375 C 349.67184 651.8516 351.47653 653.07035 352.90625 654.59375 C 354.3359 656.09379 355.53903 657.86722 356.5 659.90625 C 357.4609 661.94534 358.13277 664.02347 358.53125 666.15625 C 358.95309 668.26565 359.15621 670.47659 359.15625 672.75 C 359.15621 675.49221 358.85152 677.88283 358.21875 679.96875 C 357.60934 682.0547 356.7734 683.7422 355.71875 685.03125 C 354.68746 686.32032 353.42965 687.39844 351.90625 688.21875 C 350.38278 689.01563 348.80466 689.57032 347.1875 689.875 C 345.59372 690.17969 343.81248 690.3125 341.84375 690.3125 C 339.92185 690.3125 338.52342 690.23438 337.65625 690.09375 C 336.81248 689.92969 336.24998 689.71094 335.96875 689.40625 C 335.71092 689.07813 335.59373 688.53125 335.59375 687.78125 L 335.59375 652.09375 C 335.59373 651.0391 335.92967 650.36723 336.65625 650.0625 C 337.38279 649.73442 338.50779 649.56254 340.03125 649.5625 z M 235 656.03125 C 234.22653 656.03128 233.46872 656.29691 232.71875 656.8125 C 231.99216 657.30472 231.13278 658.14847 230.125 659.34375 C 227.71091 657.28128 225.02342 656.25003 222.09375 656.25 C 217.3828 656.25003 213.53905 657.85941 210.5625 661.09375 C 207.60937 664.32815 206.15625 668.36721 206.15625 673.21875 C 206.15625 674.62501 206.28906 676.03126 206.59375 677.4375 C 206.92187 678.82032 207.46875 680.21876 208.21875 681.625 C 208.96874 683.03126 209.89843 684.25782 211 685.3125 C 212.12499 686.36719 213.54686 687.22656 215.28125 687.90625 C 217.03905 688.5625 218.99217 688.90625 221.125 688.90625 C 222.29686 688.90625 223.50779 688.78906 224.75 688.53125 C 225.99217 688.27344 226.9531 687.95313 227.65625 687.625 L 227.65625 699.34375 C 227.65623 700.30468 227.3906 700.98436 226.875 701.40625 C 226.38279 701.85155 225.52342 702.21092 224.28125 702.46875 L 223.5625 702.625 C 223.18748 702.6953 222.99998 702.89842 223 703.25 L 223 704.90625 L 223.125 705.03125 L 231.5625 704.90625 C 233.43747 704.90623 236.2734 704.93748 240.09375 705.03125 L 240.25 704.90625 L 240.25 703.25 C 240.24996 702.92186 240.06246 702.71874 239.6875 702.625 L 239.125 702.46875 C 237.85934 702.14061 236.93747 701.76561 236.375 701.34375 C 235.83591 700.9453 235.56247 700.28124 235.5625 699.34375 L 235.5625 665.09375 C 235.56247 663.45315 235.62497 660.70315 235.71875 656.8125 C 235.71872 656.55472 235.63278 656.36722 235.46875 656.25 C 235.32809 656.10941 235.16403 656.03128 235 656.03125 z M 221.90625 659.28125 C 224.10935 659.28128 226.0156 660.53128 227.65625 663.0625 L 227.65625 683.8125 C 226.06248 684.77344 224.71092 685.25 223.5625 685.25 C 222.78904 685.25 221.98436 685.14063 221.1875 684.90625 C 220.39061 684.64844 219.56248 684.1875 218.71875 683.53125 C 217.87499 682.87501 217.12499 682.04688 216.46875 681.0625 C 215.83593 680.07813 215.32811 678.77345 214.90625 677.15625 C 214.48436 675.53908 214.28124 673.73439 214.28125 671.71875 C 214.28124 668.06252 214.96093 665.07034 216.34375 662.75 C 217.74999 660.42972 219.60936 659.28128 221.90625 659.28125 z "
         inkscape:radius="3.4020293"
         sodipodi:type="inkscape:offset" />
    </g>
    <rect
       inkscape:export-ydpi="13.281761"
       inkscape:export-xdpi="13.281761"
       inkscape:export-filename="/tmp/text4053.png"
       rx="31.31473"
       ry="31.31473"
       y="402.72318"
       x="208.3149"
       height="200.04286"
       width="200.04286"
       id="rect3851"
       style="fill:none;fill-opacity:1;fill-rule:evenodd;stroke:#000000;stroke-width:10;stroke-linecap:round;stroke-linejoin:round;stroke-miterlimit:4;stroke-opacity:1;stroke-dasharray:none" />
    <path
       sodipodi:type="inkscape:offset"
       inkscape:radius="6.5120158"
       inkscape:original="M 277.125 626.4375 C 270.67591 626.43755 265.49744 627.87754 261.75 630.90625 C 258.04411 633.89161 256.1875 638.24823 256.1875 643.625 C 256.1875 647.90093 257.37277 651.38553 259.875 653.78125 C 262.37019 656.17031 266.36037 657.78346 271.78125 658.8125 C 271.79238 658.81461 271.80136 658.81039 271.8125 658.8125 L 279.15625 660.25 A 1.0715357 1.0715357 0 0 0 279.1875 660.25 C 282.7022 660.9061 285.10208 661.81999 286.34375 662.78125 C 287.58366 663.74122 288.15621 664.94765 288.15625 666.8125 C 288.15622 668.71158 287.42641 670.00408 285.75 671.09375 C 284.1186 672.18134 281.75176 672.81251 278.625 672.8125 C 275.12006 672.81251 272.55005 672.08682 270.78125 670.78125 C 269.01709 669.47915 268.08199 667.68611 267.90625 665.09375 A 1.0715357 1.0715357 0 0 0 266.84375 664.09375 L 256.3125 664.09375 A 1.0715357 1.0715357 0 0 0 255.25 665.21875 C 255.59941 671.05898 257.74682 675.73325 261.6875 678.90625 A 1.0715357 1.0715357 0 0 0 261.71875 678.90625 C 265.70612 682.07571 271.18381 683.59375 278.0625 683.59375 C 284.98801 683.59375 290.52709 682.07325 294.5625 678.90625 C 298.59461 675.69075 300.6562 671.11337 300.65625 665.53125 C 300.6562 661.21216 299.50086 657.67893 297.0625 655.1875 C 294.63152 652.65091 290.88083 650.9851 285.90625 650 L 277.71875 648.40625 C 273.93532 647.6496 271.34633 646.77004 270.21875 646.03125 C 269.11984 645.2649 268.62499 644.28473 268.625 642.625 C 268.62499 640.94941 269.23137 639.79627 270.625 638.8125 C 272.01826 637.78806 273.9901 637.21879 276.625 637.21875 C 279.96564 637.21877 282.36638 637.8937 283.9375 639.0625 C 285.50862 640.2313 286.38624 641.89479 286.5625 644.40625 A 1.0715357 1.0715357 0 0 0 287.625 645.40625 L 297.71875 645.40625 A 1.0715357 1.0715357 0 0 0 298.78125 644.34375 C 298.78121 641.48314 298.2859 638.94607 297.25 636.71875 C 296.28648 634.48759 295.05108 632.72125 293.5 631.4375 C 292.00919 630.15241 290.26055 629.13218 288.25 628.375 C 288.23988 628.37095 288.22887 628.37903 288.21875 628.375 C 286.23936 627.58579 284.34597 627.0646 282.53125 626.8125 C 280.80404 626.56581 279.00183 626.43755 277.125 626.4375 z M 307.65625 634.3125 A 1.0715357 1.0715357 0 0 0 306.8125 635.375 L 306.8125 687.875 A 1.0715357 1.0715357 0 0 0 307.875 688.9375 L 343.8125 688.9375 A 1.0715357 1.0715357 0 0 0 344.875 687.875 L 344.875 678.875 A 1.0715357 1.0715357 0 0 0 343.8125 677.8125 L 319.71875 677.8125 L 319.71875 635.375 A 1.0715357 1.0715357 0 0 0 318.65625 634.3125 L 307.875 634.3125 A 1.0715357 1.0715357 0 0 0 307.65625 634.3125 z M 351.4375 641.3125 A 1.0715357 1.0715357 0 0 0 350.59375 642.375 L 350.59375 694.875 A 1.0715357 1.0715357 0 0 0 351.65625 695.9375 L 372.1875 695.9375 C 380.01086 695.9375 385.90231 693.81937 389.5625 689.4375 C 394.0285 684.21876 396.2187 677.22222 396.21875 668.59375 C 396.2187 660.05926 394.02001 653.05905 389.5625 647.75 C 387.67132 645.50113 385.30832 643.83378 382.5 642.8125 C 379.73761 641.78946 376.30405 641.31255 372.1875 641.3125 L 351.65625 641.3125 A 1.0715357 1.0715357 0 0 0 351.4375 641.3125 z M 363.53125 652.4375 L 372.1875 652.4375 C 375.98984 652.43752 378.60586 653.70729 380.4375 656.3125 C 382.26914 658.91771 383.28123 663.02165 383.28125 668.65625 C 383.28123 674.26635 382.26857 678.34181 380.4375 680.9375 C 378.60643 683.53319 375.99047 684.8125 372.1875 684.8125 L 363.53125 684.8125 L 363.53125 652.4375 z M 228.28125 654.28125 C 223.32299 654.28129 219.06175 656.4553 215.78125 660.59375 C 212.54393 664.69102 210.96875 669.8654 210.96875 676 C 210.96875 682.1274 212.48728 687.30698 215.625 691.40625 C 218.818 695.51155 223.12771 697.65625 228.21875 697.65625 C 232.23295 697.65625 235.55595 696.21543 238.03125 693.5 L 238.03125 710.5625 A 1.0715357 1.0715357 0 0 0 239.09375 711.625 L 249.15625 711.625 A 1.0715357 1.0715357 0 0 0 250.21875 710.5625 L 250.21875 655.96875 A 1.0715357 1.0715357 0 0 0 249.15625 654.90625 L 239.09375 654.90625 A 1.0715357 1.0715357 0 0 0 238.03125 655.96875 L 238.03125 658.46875 C 235.54501 655.73094 232.2271 654.28128 228.28125 654.28125 z M 230.59375 664.8125 C 232.81478 664.81253 234.46135 665.71966 235.84375 667.75 A 1.0715357 1.0715357 0 0 0 235.84375 667.78125 C 237.2662 669.80722 238.03122 672.57576 238.03125 676.21875 C 238.03122 679.61171 237.27032 682.23017 235.84375 684.21875 C 234.41567 686.20938 232.77365 687.09376 230.59375 687.09375 C 228.35984 687.09376 226.70747 686.20685 225.28125 684.21875 C 223.90418 682.18438 223.15624 679.4832 223.15625 676 C 223.15624 672.51685 223.90417 669.81567 225.28125 667.78125 C 226.71267 665.74256 228.37268 664.81253 230.59375 664.8125 z "
       style="font-size:48px;font-style:normal;font-variant:normal;font-weight:normal;font-stretch:normal;line-height:125%;letter-spacing:0px;word-spacing:0px;fill:#000000;fill-opacity:1;stroke:none;filter:url(#filter4021);font-family:Linux Libertine O;-inkscape-font-specification:Linux Libertine O"
       id="path3962"
       d="m 277.125,619.9375 c -7.41842,6e-5 -14.22511,1.6683 -19.46875,5.90625 -5.28873,4.26045 -7.96875,10.9054 -7.96875,17.78125 0,1.64072 0.18335,3.27323 0.5,4.875 -0.51401,-0.0472 -1.20086,-0.0957 -0.96875,-0.0937 a 6.512667,6.512667 0 0 0 -0.0625,0 l -10.0625,0 a 6.512667,6.512667 0 0 0 -0.0625,0 c 0.35226,-0.003 -1.81381,0.22715 -1.46875,0.15625 0.34506,-0.0709 -1.73114,0.54242 -1.40625,0.40625 0.11746,-0.0492 -0.21127,0.10745 -0.46875,0.25 -2.33557,-0.92415 -4.84664,-1.43748 -7.40625,-1.4375 -6.86175,6e-5 -13.2976,3.36152 -17.59375,8.78125 a 6.512667,6.512667 0 0 0 -0.0312,0 c -4.25369,5.38362 -6.1875,12.18817 -6.1875,19.4375 0,7.2033 1.86942,13.9786 6,19.375 a 6.512667,6.512667 0 0 0 0.0312,0.0312 c 4.2616,5.47923 10.79883,8.75 17.71875,8.75 1.11826,0 2.22113,-0.134 3.3125,-0.3125 l 0,6.71875 a 6.512667,6.512667 0 0 0 0,0.0625 c -0.003,-0.35226 0.22715,1.81381 0.15625,1.46875 -0.0709,-0.34506 0.54242,1.73114 0.40625,1.40625 -0.13617,-0.32489 0.91508,1.57374 0.71875,1.28125 -0.19633,-0.29249 1.18659,1.37409 0.9375,1.125 -0.24909,-0.24909 1.41749,1.13383 1.125,0.9375 -0.29249,-0.19633 1.60614,0.85492 1.28125,0.71875 -0.32489,-0.13617 1.75131,0.47715 1.40625,0.40625 -0.34506,-0.0709 1.82101,0.15921 1.46875,0.15625 a 6.512667,6.512667 0 0 0 0.0625,0 l 10.0625,0 a 6.512667,6.512667 0 0 0 0.0625,0 c -0.35226,0.003 1.81381,-0.22715 1.46875,-0.15625 -0.34506,0.0709 1.73114,-0.54242 1.40625,-0.40625 -0.32489,0.13617 1.57374,-0.91508 1.28125,-0.71875 -0.29249,0.19633 1.37409,-1.18659 1.125,-0.9375 -0.24909,0.24909 1.13383,-1.41749 0.9375,-1.125 -0.19633,0.29249 0.85492,-1.60614 0.71875,-1.28125 -0.13617,0.32489 0.47715,-1.75131 0.40625,-1.40625 -0.0709,0.34506 0.15921,-1.82101 0.15625,-1.46875 a 6.512667,6.512667 0 0 0 0,-0.0625 l 0,-27.5 c 0.31337,0.28404 0.54305,0.63897 0.875,0.90625 a 6.512667,6.512667 0 0 0 0.0625,0.0312 6.512667,6.512667 0 0 0 1.25,0.8125 c 5.28875,3.6957 11.87999,5.28125 19.15625,5.28125 7.87865,0 15.01547,-1.7337 20.53125,-6.0625 A 6.512667,6.512667 0 0 0 298.625,684 c 0.63712,-0.50809 1.11817,-1.14931 1.6875,-1.71875 l 0,5.59375 a 6.512667,6.512667 0 0 0 0,0.0625 c -0.003,-0.35226 0.22715,1.81381 0.15625,1.46875 -0.0709,-0.34506 0.54242,1.73114 0.40625,1.40625 -0.13617,-0.32489 0.91508,1.57374 0.71875,1.28125 -0.19633,-0.29249 1.18659,1.37409 0.9375,1.125 -0.24909,-0.24909 1.41749,1.13383 1.125,0.9375 -0.29249,-0.19633 1.60614,0.85492 1.28125,0.71875 -0.32489,-0.13617 1.75131,0.47715 1.40625,0.40625 -0.34506,-0.0709 1.82101,0.15921 1.46875,0.15625 a 6.512667,6.512667 0 0 0 0.0625,0 l 35.9375,0 a 6.512667,6.512667 0 0 0 0.0625,0 c -0.0675,5.7e-4 0.1996,-0.0185 0.28125,-0.0312 0.0618,0.50444 0.14196,1.23462 0.0937,1 -0.0709,-0.34506 0.54242,1.73114 0.40625,1.40625 -0.13617,-0.32489 0.91508,1.57374 0.71875,1.28125 -0.19633,-0.29249 1.18659,1.37409 0.9375,1.125 -0.24909,-0.24909 1.41749,1.13383 1.125,0.9375 -0.29249,-0.19633 1.60614,0.85492 1.28125,0.71875 -0.32489,-0.13617 1.75131,0.47715 1.40625,0.40625 -0.34506,-0.0709 1.82101,0.15921 1.46875,0.15625 a 6.512667,6.512667 0 0 0 0.0625,0 l 20.53125,0 c 8.97339,0 17.10813,-2.59103 22.3125,-8.78125 0.0147,-0.0175 0.0478,-0.0137 0.0625,-0.0312 l -0.0312,-0.0312 c 5.62002,-6.59788 8.18744,-15.29559 8.1875,-25 -6e-5,-9.6529 -2.56421,-18.37093 -8.15625,-25.03125 a 6.512667,6.512667 0 0 0 -0.0312,0 c -2.58147,-3.06972 -5.95271,-5.44345 -9.78125,-6.84375 -0.009,-0.003 -0.0219,0.003 -0.0312,0 -3.7848,-1.39658 -7.92317,-1.90619 -12.53125,-1.90625 l -20.53125,0 0,0.0312 c -0.53226,0.003 -1.08582,0.0216 -0.875,0 a 6.512667,6.512667 0 0 0 -0.71875,0.0937 c 0.30371,-0.066 -1.538,0.52312 -1.25,0.40625 0.288,-0.11687 -1.4201,0.72677 -1.15625,0.5625 0.26385,-0.16427 -1.26322,0.98812 -1.03125,0.78125 0.23197,-0.20687 -1.09954,1.21215 -0.90625,0.96875 0.19329,-0.2434 -0.86769,1.3353 -0.71875,1.0625 0.14894,-0.2728 -0.60024,1.4817 -0.5,1.1875 0.10024,-0.2942 -0.36109,1.58824 -0.3125,1.28125 0.0451,-0.28464 -0.0733,1.1974 -0.0937,1.1875 -0.002,-7.8e-4 3.3e-4,0.11637 0,0.0937 l 0,28.875 c -0.0429,-0.008 -0.27142,-0.0317 -0.21875,-0.0312 a 6.512667,6.512667 0 0 0 -0.0625,0 l -17.59375,0 0,-35.9375 a 6.512667,6.512667 0 0 0 0,-0.0625 c 0.003,0.35226 -0.22715,-1.81381 -0.15625,-1.46875 0.0709,0.34506 -0.54242,-1.73114 -0.40625,-1.40625 0.13617,0.32489 -0.91508,-1.57374 -0.71875,-1.28125 0.19633,0.29249 -1.18659,-1.37409 -0.9375,-1.125 0.24909,0.24909 -1.41749,-1.13383 -1.125,-0.9375 0.29249,0.19633 -1.60614,-0.85492 -1.28125,-0.71875 0.32489,0.13617 -1.75131,-0.47715 -1.40625,-0.40625 0.34506,0.0709 -1.82101,-0.15921 -1.46875,-0.15625 a 6.512667,6.512667 0 0 0 -0.0625,0 l -10.78125,0 0,0.0312 c -0.53226,0.003 -1.08582,0.0216 -0.875,0 a 6.512667,6.512667 0 0 0 -0.71875,0.0937 c 0.30371,-0.066 -1.538,0.52312 -1.25,0.40625 0.288,-0.11687 -1.4201,0.72677 -1.15625,0.5625 0.26385,-0.16427 -1.26322,0.98812 -1.03125,0.78125 0.23197,-0.20687 -1.09954,1.21215 -0.90625,0.96875 0.0953,-0.12004 -0.12488,0.2008 -0.34375,0.53125 -1.05763,-1.7317 -2.26585,-3.3604 -3.84375,-4.6875 -0.0285,-0.0245 -0.0652,-0.0381 -0.0937,-0.0625 -2.05281,-1.75118 -4.43554,-3.11231 -7,-4.09375 -0.0123,-0.005 -0.019,0.005 -0.0312,0 l 0,-0.0312 c -0.0123,-0.005 -0.019,0.005 -0.0312,0 -0.0131,-0.005 -0.0182,-0.0263 -0.0312,-0.0312 -0.01,-0.004 -0.0216,0.004 -0.0312,0 0.002,8.3e-4 -0.002,0.0304 0,0.0312 -0.81808,-0.30725 -1.46123,-0.35468 -2.03125,-0.375 0.56877,0.0224 1.21445,0.0338 2.03125,0.34375 -2.35879,-0.93312 -4.71089,-1.57522 -7.09375,-1.90625 -2.04212,-0.29167 -4.1391,-0.43744 -6.3125,-0.4375 z m 92.90625,39 2.15625,0 c 2.35259,10e-6 2.21115,0.0919 2.9375,1.125 0.63016,0.89629 1.65623,3.73893 1.65625,8.59375 -2e-5,4.82647 -1.02402,7.63502 -1.65625,8.53125 -0.728,1.032 -0.59495,1.125 -2.9375,1.125 l -2.15625,0 0,-19.375 z m -139.46875,12.75 c 0.43633,0.67521 0.96873,1.93446 0.96875,4.53125 -2e-5,2.34545 -0.46569,3.44001 -0.9375,4.125 -0.4578,-0.75072 -0.93751,-1.96766 -0.9375,-4.34375 -1e-5,-2.34587 0.45458,-3.55777 0.90625,-4.3125 z"
       inkscape:export-filename="/tmp/path3915.png"
       inkscape:export-xdpi="6.8499999"
       inkscape:export-ydpi="6.8499999"
       transform="matrix(1.2170926,0,0,1.2170926,-134.17037,-33.670725)" />
    <path
       sodipodi:type="inkscape:offset"
       inkscape:radius="0"
       inkscape:original="M 277.125 626.4375 C 270.67591 626.43755 265.49744 627.87754 261.75 630.90625 C 258.04411 633.89161 256.1875 638.24823 256.1875 643.625 C 256.1875 647.90093 257.37277 651.38553 259.875 653.78125 C 262.37019 656.17031 266.36037 657.78346 271.78125 658.8125 C 271.79238 658.81461 271.80136 658.81039 271.8125 658.8125 L 279.15625 660.25 A 1.0715357 1.0715357 0 0 0 279.1875 660.25 C 282.7022 660.9061 285.10208 661.81999 286.34375 662.78125 C 287.58366 663.74122 288.15621 664.94765 288.15625 666.8125 C 288.15622 668.71158 287.42641 670.00408 285.75 671.09375 C 284.1186 672.18134 281.75176 672.81251 278.625 672.8125 C 275.12006 672.81251 272.55005 672.08682 270.78125 670.78125 C 269.01709 669.47915 268.08199 667.68611 267.90625 665.09375 A 1.0715357 1.0715357 0 0 0 266.84375 664.09375 L 256.3125 664.09375 A 1.0715357 1.0715357 0 0 0 255.25 665.21875 C 255.59941 671.05898 257.74682 675.73325 261.6875 678.90625 A 1.0715357 1.0715357 0 0 0 261.71875 678.90625 C 265.70612 682.07571 271.18381 683.59375 278.0625 683.59375 C 284.98801 683.59375 290.52709 682.07325 294.5625 678.90625 C 298.59461 675.69075 300.6562 671.11337 300.65625 665.53125 C 300.6562 661.21216 299.50086 657.67893 297.0625 655.1875 C 294.63152 652.65091 290.88083 650.9851 285.90625 650 L 277.71875 648.40625 C 273.93532 647.6496 271.34633 646.77004 270.21875 646.03125 C 269.11984 645.2649 268.62499 644.28473 268.625 642.625 C 268.62499 640.94941 269.23137 639.79627 270.625 638.8125 C 272.01826 637.78806 273.9901 637.21879 276.625 637.21875 C 279.96564 637.21877 282.36638 637.8937 283.9375 639.0625 C 285.50862 640.2313 286.38624 641.89479 286.5625 644.40625 A 1.0715357 1.0715357 0 0 0 287.625 645.40625 L 297.71875 645.40625 A 1.0715357 1.0715357 0 0 0 298.78125 644.34375 C 298.78121 641.48314 298.2859 638.94607 297.25 636.71875 C 296.28648 634.48759 295.05108 632.72125 293.5 631.4375 C 292.00919 630.15241 290.26055 629.13218 288.25 628.375 C 288.23988 628.37095 288.22887 628.37903 288.21875 628.375 C 286.23936 627.58579 284.34597 627.0646 282.53125 626.8125 C 280.80404 626.56581 279.00183 626.43755 277.125 626.4375 z M 307.65625 634.3125 A 1.0715357 1.0715357 0 0 0 306.8125 635.375 L 306.8125 687.875 A 1.0715357 1.0715357 0 0 0 307.875 688.9375 L 343.8125 688.9375 A 1.0715357 1.0715357 0 0 0 344.875 687.875 L 344.875 678.875 A 1.0715357 1.0715357 0 0 0 343.8125 677.8125 L 319.71875 677.8125 L 319.71875 635.375 A 1.0715357 1.0715357 0 0 0 318.65625 634.3125 L 307.875 634.3125 A 1.0715357 1.0715357 0 0 0 307.65625 634.3125 z M 351.4375 641.3125 A 1.0715357 1.0715357 0 0 0 350.59375 642.375 L 350.59375 694.875 A 1.0715357 1.0715357 0 0 0 351.65625 695.9375 L 372.1875 695.9375 C 380.01086 695.9375 385.90231 693.81937 389.5625 689.4375 C 394.0285 684.21876 396.2187 677.22222 396.21875 668.59375 C 396.2187 660.05926 394.02001 653.05905 389.5625 647.75 C 387.67132 645.50113 385.30832 643.83378 382.5 642.8125 C 379.73761 641.78946 376.30405 641.31255 372.1875 641.3125 L 351.65625 641.3125 A 1.0715357 1.0715357 0 0 0 351.4375 641.3125 z M 363.53125 652.4375 L 372.1875 652.4375 C 375.98984 652.43752 378.60586 653.70729 380.4375 656.3125 C 382.26914 658.91771 383.28123 663.02165 383.28125 668.65625 C 383.28123 674.26635 382.26857 678.34181 380.4375 680.9375 C 378.60643 683.53319 375.99047 684.8125 372.1875 684.8125 L 363.53125 684.8125 L 363.53125 652.4375 z M 228.28125 654.28125 C 223.32299 654.28129 219.06175 656.4553 215.78125 660.59375 C 212.54393 664.69102 210.96875 669.8654 210.96875 676 C 210.96875 682.1274 212.48728 687.30698 215.625 691.40625 C 218.818 695.51155 223.12771 697.65625 228.21875 697.65625 C 232.23295 697.65625 235.55595 696.21543 238.03125 693.5 L 238.03125 710.5625 A 1.0715357 1.0715357 0 0 0 239.09375 711.625 L 249.15625 711.625 A 1.0715357 1.0715357 0 0 0 250.21875 710.5625 L 250.21875 655.96875 A 1.0715357 1.0715357 0 0 0 249.15625 654.90625 L 239.09375 654.90625 A 1.0715357 1.0715357 0 0 0 238.03125 655.96875 L 238.03125 658.46875 C 235.54501 655.73094 232.2271 654.28128 228.28125 654.28125 z M 230.59375 664.8125 C 232.81478 664.81253 234.46135 665.71966 235.84375 667.75 A 1.0715357 1.0715357 0 0 0 235.84375 667.78125 C 237.2662 669.80722 238.03122 672.57576 238.03125 676.21875 C 238.03122 679.61171 237.27032 682.23017 235.84375 684.21875 C 234.41567 686.20938 232.77365 687.09376 230.59375 687.09375 C 228.35984 687.09376 226.70747 686.20685 225.28125 684.21875 C 223.90418 682.18438 223.15624 679.4832 223.15625 676 C 223.15624 672.51685 223.90417 669.81567 225.28125 667.78125 C 226.71267 665.74256 228.37268 664.81253 230.59375 664.8125 z "
       style="font-size:48px;font-style:normal;font-variant:normal;font-weight:normal;font-stretch:normal;line-height:125%;letter-spacing:0px;word-spacing:0px;fill:#ffffff;fill-opacity:1;stroke:none;font-family:Linux Libertine O;-inkscape-font-specification:Linux Libertine O"
       id="path3916"
       d="m 277.125,626.4375 c -6.44909,5e-5 -11.62756,1.44004 -15.375,4.46875 -3.70589,2.98536 -5.5625,7.34198 -5.5625,12.71875 0,4.27593 1.18527,7.76053 3.6875,10.15625 2.49519,2.38906 6.48537,4.00221 11.90625,5.03125 0.0111,0.002 0.0201,-0.002 0.0312,0 l 7.34375,1.4375 a 1.0715357,1.0715357 0 0 0 0.0312,0 c 3.5147,0.6561 5.91458,1.56999 7.15625,2.53125 1.23991,0.95997 1.81246,2.1664 1.8125,4.03125 -3e-5,1.89908 -0.72984,3.19158 -2.40625,4.28125 -1.6314,1.08759 -3.99824,1.71876 -7.125,1.71875 -3.50494,10e-6 -6.07495,-0.72568 -7.84375,-2.03125 -1.76416,-1.3021 -2.69926,-3.09514 -2.875,-5.6875 a 1.0715357,1.0715357 0 0 0 -1.0625,-1 l -10.53125,0 a 1.0715357,1.0715357 0 0 0 -1.0625,1.125 c 0.34941,5.84023 2.49682,10.5145 6.4375,13.6875 a 1.0715357,1.0715357 0 0 0 0.0312,0 c 3.98737,3.16946 9.46506,4.6875 16.34375,4.6875 6.92551,0 12.46459,-1.5205 16.5,-4.6875 4.03211,-3.2155 6.0937,-7.79288 6.09375,-13.375 -5e-5,-4.31909 -1.15539,-7.85232 -3.59375,-10.34375 -2.43098,-2.53659 -6.18167,-4.2024 -11.15625,-5.1875 l -8.1875,-1.59375 c -3.78343,-0.75665 -6.37242,-1.63621 -7.5,-2.375 -1.09891,-0.76635 -1.59376,-1.74652 -1.59375,-3.40625 -10e-6,-1.67559 0.60637,-2.82873 2,-3.8125 1.39326,-1.02444 3.3651,-1.59371 6,-1.59375 3.34064,2e-5 5.74138,0.67495 7.3125,1.84375 1.57112,1.1688 2.44874,2.83229 2.625,5.34375 a 1.0715357,1.0715357 0 0 0 1.0625,1 l 10.09375,0 a 1.0715357,1.0715357 0 0 0 1.0625,-1.0625 c -4e-5,-2.86061 -0.49535,-5.39768 -1.53125,-7.625 -0.96352,-2.23116 -2.19892,-3.9975 -3.75,-5.28125 -1.49081,-1.28509 -3.23945,-2.30532 -5.25,-3.0625 -0.0101,-0.004 -0.0211,0.004 -0.0312,0 -1.97939,-0.78921 -3.87278,-1.3104 -5.6875,-1.5625 -1.72721,-0.24669 -3.52942,-0.37495 -5.40625,-0.375 z m 30.53125,7.875 a 1.0715357,1.0715357 0 0 0 -0.84375,1.0625 l 0,52.5 a 1.0715357,1.0715357 0 0 0 1.0625,1.0625 l 35.9375,0 a 1.0715357,1.0715357 0 0 0 1.0625,-1.0625 l 0,-9 a 1.0715357,1.0715357 0 0 0 -1.0625,-1.0625 l -24.09375,0 0,-42.4375 a 1.0715357,1.0715357 0 0 0 -1.0625,-1.0625 l -10.78125,0 a 1.0715357,1.0715357 0 0 0 -0.21875,0 z m 43.78125,7 a 1.0715357,1.0715357 0 0 0 -0.84375,1.0625 l 0,52.5 a 1.0715357,1.0715357 0 0 0 1.0625,1.0625 l 20.53125,0 c 7.82336,0 13.71481,-2.11813 17.375,-6.5 4.466,-5.21874 6.6562,-12.21528 6.65625,-20.84375 -5e-5,-8.53449 -2.19874,-15.5347 -6.65625,-20.84375 -1.89118,-2.24887 -4.25418,-3.91622 -7.0625,-4.9375 -2.76239,-1.02304 -6.19595,-1.49995 -10.3125,-1.5 l -20.53125,0 a 1.0715357,1.0715357 0 0 0 -0.21875,0 z m 12.09375,11.125 8.65625,0 c 3.80234,2e-5 6.41836,1.26979 8.25,3.875 1.83164,2.60521 2.84373,6.70915 2.84375,12.34375 -2e-5,5.6101 -1.01268,9.68556 -2.84375,12.28125 -1.83107,2.59569 -4.44703,3.875 -8.25,3.875 l -8.65625,0 0,-32.375 z m -135.25,1.84375 c -4.95826,4e-5 -9.2195,2.17405 -12.5,6.3125 -3.23732,4.09727 -4.8125,9.27165 -4.8125,15.40625 0,6.1274 1.51853,11.30698 4.65625,15.40625 3.193,4.1053 7.50271,6.25 12.59375,6.25 4.0142,0 7.3372,-1.44082 9.8125,-4.15625 l 0,17.0625 a 1.0715357,1.0715357 0 0 0 1.0625,1.0625 l 10.0625,0 a 1.0715357,1.0715357 0 0 0 1.0625,-1.0625 l 0,-54.59375 a 1.0715357,1.0715357 0 0 0 -1.0625,-1.0625 l -10.0625,0 a 1.0715357,1.0715357 0 0 0 -1.0625,1.0625 l 0,2.5 c -2.48624,-2.73781 -5.80415,-4.18747 -9.75,-4.1875 z m 2.3125,10.53125 c 2.22103,3e-5 3.8676,0.90716 5.25,2.9375 a 1.0715357,1.0715357 0 0 0 0,0.0312 c 1.42245,2.02597 2.18747,4.79451 2.1875,8.4375 -3e-5,3.39296 -0.76093,6.01142 -2.1875,8 -1.42808,1.99063 -3.0701,2.87501 -5.25,2.875 -2.23391,10e-6 -3.88628,-0.8869 -5.3125,-2.875 -1.37707,-2.03437 -2.12501,-4.73555 -2.125,-8.21875 -1e-5,-3.48315 0.74792,-6.18433 2.125,-8.21875 1.43142,-2.03869 3.09143,-2.96872 5.3125,-2.96875 z"
       inkscape:export-filename="/tmp/path3915.png"
       inkscape:export-xdpi="6.8499999"
       inkscape:export-ydpi="6.8499999"
       transform="matrix(1.2170926,0,0,1.2170926,-134.17037,-33.67068)" />
    <text
       sodipodi:linespacing="125%"
       id="text3130"
       y="704.14789"
       x="458.21429"
       style="font-size:48px;font-style:normal;font-variant:normal;font-weight:normal;font-stretch:normal;line-height:125%;letter-spacing:0px;word-spacing:0px;fill:#000000;fill-opacity:1;stroke:none;font-family:Linux Libertine O;-inkscape-font-specification:Linux Libertine O"
       xml:space="preserve"><tspan
         dy="0 -14 7 7"
         style="font-size:72px;font-style:normal;font-variant:normal;font-weight:bold;font-stretch:normal;font-family:FreeSans;-inkscape-font-specification:FreeSans Bold"
         y="704.14789"
         x="458.21429"
         id="tspan3132"
         sodipodi:role="line">qSLD</tspan></text>
  </g>
</svg>
